{"accessors" : [{"bufferView" : 0, "byteOffset" : 0, "componentType" : 5123, "count" : 5628, "type" : "SCALAR", "max" : [4701], "min" : [0]}, {"bufferView" : 1, "byteOffset" : 0, "componentType" : 5126, "count" : 4702, "type" : "VEC3", "max" : [2.963783025741577, 2.589951992034912, 1.0146358013153076], "min" : [-3.129417657852173, -2.1357884407043457, -1.0566022396087646], "name" : "POSITION"}, {"bufferView" : 0, "byteOffset" : 11256, "componentType" : 5123, "count" : 12225, "type" : "SCALAR", "max" : [10385], "min" : [0]}, {"bufferView" : 2, "byteOffset" : 0, "componentType" : 5126, "count" : 10386, "type" : "VEC3", "max" : [2.5022027492523193, 2.4240833576820876E-16, 4.191992282867432], "min" : [-2.609506845474243, -2.566854996106536E-16, -3.9588282108306885], "name" : "POSITION"}, {"bufferView" : 0, "byteOffset" : 35708, "componentType" : 5123, "count" : 1041, "type" : "SCALAR", "max" : [879], "min" : [0]}, {"bufferView" : 3, "byteOffset" : 0, "componentType" : 5126, "count" : 880, "type" : "VEC3", "max" : [1.3558449745178223, 0.009999999776482582, 3.365344285964966], "min" : [-2.4235360622406006, 0.009999999776482582, -3.597130298614502], "name" : "POSITION"}, {"bufferView" : 0, "byteOffset" : 37792, "componentType" : 5123, "count" : 3546, "type" : "SCALAR", "max" : [3027], "min" : [0]}, {"bufferView" : 4, "byteOffset" : 0, "componentType" : 5126, "count" : 3028, "type" : "VEC3", "max" : [3.509673595428467, -0.009999999776482582, 4.727773666381836], "min" : [-3.8896398544311523, -0.009999999776482582, -4.196833610534668], "name" : "POSITION"}], "asset" : {"generator" : "Aspose.3D 23.2", "version" : "2.0"}, "buffers" : [{"uri" : "data:application/octet-stream;base64,", "byteLength" : 314184}], "bufferViews" : [{"buffer" : 0, "byteOffset" : 0, "byteLength" : 44884, "target" : 34963}, {"buffer" : 0, "byteOffset" : 44888, "byteLength" : 67536, "byteStride" : 12, "target" : 34962}, {"buffer" : 0, "byteOffset" : 112428, "byteLength" : 146700, "byteStride" : 12, "target" : 34962}, {"buffer" : 0, "byteOffset" : 259132, "byteLength" : 12492, "byteStride" : 12, "target" : 34962}, {"buffer" : 0, "byteOffset" : 271628, "byteLength" : 42552, "byteStride" : 12, "target" : 34962}], "materials" : [{"name" : "root", "pbrMetallicRoughness" : {"baseColorFactor" : [0, 0, 0, 1], "metallicFactor" : 0, "roughnessFactor" : 0.300000012}, "emissiveFactor" : [0, 0, 0], "alphaMode" : "OPAQUE", "doubleSided" : false}, {"name" : "red", "pbrMetallicRoughness" : {"baseColorFactor" : [0.947083235, 0, 0, 1], "metallicFactor" : 0, "roughnessFactor" : 0.300000012}, "emissiveFactor" : [0, 0, 0], "alphaMode" : "OPAQUE", "doubleSided" : false}, {"name" : "yellow", "pbrMetallicRoughness" : {"baseColorFactor" : [0.819233, 0.758530557, 0, 1], "metallicFactor" : 0, "roughnessFactor" : 0.300000012}, "emissiveFactor" : [0, 0, 0], "alphaMode" : "OPAQUE", "doubleSided" : false}, {"name" : "dark", "pbrMetallicRoughness" : {"baseColorFactor" : [0.0689999983, 0.0167174246, 0.0138689978, 1], "metallicFactor" : 0, "roughnessFactor" : 0.300000012}, "emissiveFactor" : [0, 0, 0], "alphaMode" : "OPAQUE", "doubleSided" : false}], "meshes" : [{"primitives" : [{"attributes" : {"POSITION" : 1}, "indices" : 0, "material" : 0, "mode" : 4}]}, {"primitives" : [{"attributes" : {"POSITION" : 3}, "indices" : 2, "material" : 1, "mode" : 4}, {"attributes" : {"POSITION" : 5}, "indices" : 4, "material" : 2, "mode" : 4}, {"attributes" : {"POSITION" : 7}, "indices" : 6, "material" : 3, "mode" : 4}]}], "nodes" : [{"matrix" : [1, 0, 0, 0, 0, 1, 0, 0, 0, 0, 1, 0, 0.219549373, 0, 0.000921414001, 1], "mesh" : 0, "name" : "roots"}, {"matrix" : [1, 0, 0, 0, 0, 0, 1, 0, 0, -1, 0, 0, 0, 3.24325085, 0, 1], "mesh" : 1, "name" : "fire2"}, {"children" : [0, 1], "name" : "Root"}], "scene" : 0, "scenes" : [{"nodes" : [2]}]}